<?xml version="1.0" encoding="UTF-8"?>
<svg version="1.1" xmlns="http://www.w3.org/2000/svg" width="274" height="247">
<path d="M0 0 C0.9796875 0.00322266 1.959375 0.00644531 2.96875 0.00976562 C3.98453125 0.01814453 5.0003125 0.02652344 6.046875 0.03515625 C7.59375 0.04192383 7.59375 0.04192383 9.171875 0.04882812 C11.71360073 0.06059537 14.25520819 0.07703614 16.796875 0.09765625 C16.32560447 8.02574944 15.09258458 13.50623709 11.546875 20.59765625 C10.48890367 24.12422734 10.90860188 26.54456378 11.796875 30.09765625 C13.62026552 32.80333251 14.87144936 34.63494343 17.796875 36.09765625 C24.41612251 36.96738464 24.41612251 36.96738464 30.59765625 35.0390625 C34.1926019 31.12598007 34.63086783 27.16087494 34.796875 22.09765625 C34.301875 20.61265625 34.301875 20.61265625 33.796875 19.09765625 C33.14221403 13.84963631 33.75866615 9.66351194 35.81640625 4.7890625 C36.18483643 3.90549072 36.5532666 3.02191895 36.93286133 2.11157227 C37.21798584 1.44697998 37.50311035 0.7823877 37.796875 0.09765625 C42.17511417 0.04827476 46.55320646 0.01194585 50.93164062 -0.01220703 C52.4215782 -0.02227418 53.91149597 -0.03592893 55.40136719 -0.05322266 C57.54106528 -0.07744028 59.68050253 -0.08881939 61.8203125 -0.09765625 C63.10856934 -0.10812988 64.39682617 -0.11860352 65.72412109 -0.12939453 C68.796875 0.09765625 68.796875 0.09765625 70.796875 2.09765625 C71.68359375 4.70703125 71.68359375 4.70703125 72.484375 7.84765625 C72.75636719 8.87375 73.02835937 9.89984375 73.30859375 10.95703125 C73.83603632 14.34954186 73.44967076 16.74663803 72.796875 20.09765625 C72.73227281 22.22177621 72.71076421 24.3476853 72.734375 26.47265625 C72.74339844 27.53226563 72.75242187 28.591875 72.76171875 29.68359375 C72.77332031 30.48023437 72.78492188 31.276875 72.796875 32.09765625 C73.456875 32.09765625 74.116875 32.09765625 74.796875 32.09765625 C74.796875 32.75765625 74.796875 33.41765625 74.796875 34.09765625 C79.55272759 36.90181462 84.4230128 36.7683666 89.796875 36.09765625 C92.44841531 34.53251435 92.44841531 34.53251435 93.796875 32.09765625 C94.209375 31.52015625 94.621875 30.94265625 95.046875 30.34765625 C96.16758058 26.98553951 96.4317532 23.5928997 95.796875 20.09765625 C94.8052222 18.75810315 93.80440305 17.4253102 92.796875 16.09765625 C91.84765625 13.4765625 91.84765625 13.4765625 91.109375 10.66015625 C90.73232422 9.26990234 90.73232422 9.26990234 90.34765625 7.8515625 C89.81257649 5.1761637 89.75669196 2.81499867 89.796875 0.09765625 C117.83875827 -0.86712999 117.83875827 -0.86712999 129.85546875 9.171875 C137.57531155 16.82958626 139.1220713 26.14955002 140.484375 36.53515625 C140.64881104 37.755979 140.81324707 38.97680176 140.98266602 40.23461914 C143.12543093 56.23385735 145.12622706 72.25270645 147.14794922 88.26757812 C148.49552386 98.93422691 149.84832568 109.59938303 151.2890625 120.25390625 C155.03832547 147.98046584 155.03832547 147.98046584 156.234375 160.91015625 C156.32759033 161.83497803 156.42080566 162.7597998 156.5168457 163.71264648 C157.30805808 173.31299144 155.33031503 182.28276384 149.33203125 189.9765625 C143.13755256 196.72490046 135.04594334 200.81734026 125.86696339 201.22908401 C124.23413174 201.23354601 124.23413174 201.23354601 122.5683136 201.23809814 C121.31376877 201.24380829 120.05922394 201.24951843 118.7666626 201.25540161 C117.38391123 201.25664682 116.00115975 201.25777195 114.6184082 201.25878906 C113.15608089 201.26342059 111.69375478 201.2684457 110.23143005 201.27383423 C106.26423951 201.2869294 102.29706588 201.29339774 98.32985711 201.29784489 C95.84809344 201.30078073 93.36633434 201.30488654 90.88457298 201.30934906 C83.11046188 201.32301742 75.33636128 201.33268688 67.56223899 201.33655095 C58.60559237 201.34102792 49.64909865 201.35856177 40.69249851 201.38755155 C33.75811304 201.40921233 26.82377046 201.4192576 19.88935155 201.42059207 C15.75308705 201.4216371 11.61696639 201.42748017 7.48073769 201.44541168 C3.58598293 201.46196826 -0.30852102 201.46401138 -4.20329857 201.45527267 C-5.62622248 201.4545063 -7.04916031 201.45879189 -8.47204971 201.46873093 C-21.44407388 201.5539678 -30.92832789 199.88027962 -40.765625 191.03515625 C-49.00476899 182.30166362 -49.87024601 173.23722476 -49.57421875 161.74609375 C-49.31901862 157.06510766 -48.36994442 152.6286138 -47.203125 148.09765625 C-44.203125 148.09765625 -44.203125 148.09765625 -41.828125 150.34765625 C-40.961875 151.25515625 -40.095625 152.16265625 -39.203125 153.09765625 C-31.51986791 160.34187008 -22.99515879 161.67449603 -12.82641602 161.57421875 C-6.65556544 161.34626835 -1.61259879 160.17954769 3.796875 157.09765625 C5.34375 156.29328125 5.34375 156.29328125 6.921875 155.47265625 C15.90102214 148.05509991 21.55843305 138.67876206 22.796875 127.09765625 C22.97192039 114.9845152 19.27581058 105.87341395 10.91796875 97.19140625 C10.21800781 96.50046875 9.51804688 95.80953125 8.796875 95.09765625 C8.3328125 94.56398438 7.86875 94.0303125 7.390625 93.48046875 C0.38771904 87.40441799 -10.31765804 86.2737646 -19.203125 86.09765625 C-19.203125 85.10765625 -19.203125 84.11765625 -19.203125 83.09765625 C-18.77 82.68515625 -18.336875 82.27265625 -17.890625 81.84765625 C-13.75619228 77.56009639 -12.96913737 72.916649 -12.765625 67.16015625 C-12.88761976 61.44075509 -14.31331445 57.97421156 -17.203125 53.09765625 C-17.203125 52.43765625 -17.203125 51.77765625 -17.203125 51.09765625 C-17.76 50.82953125 -18.316875 50.56140625 -18.890625 50.28515625 C-21.203125 49.09765625 -21.203125 49.09765625 -23.515625 47.59765625 C-26.65115533 45.84759281 -29.74805678 45.03737 -33.203125 44.09765625 C-32.84815267 31.26540668 -32.02833347 18.68647088 -22.55859375 9.0390625 C-15.82736039 3.49109736 -8.74804599 -0.05086073 0 0 Z " fill="#F6941F" transform="translate(105.203125,38.90234375)"/>
<path d="M0 0 C7.10941415 7.10941415 10.25041435 14.55403955 10.625 24.5625 C10.44143434 33.97833844 7.50405801 40.76106378 1.02734375 47.56640625 C-5.3316451 53.58997591 -12.997122 56.28683074 -21.6875 56.6875 C-31.48074479 56.28902682 -38.67570671 52.34707703 -45.6484375 45.62890625 C-51.95669767 38.48814335 -53.12700653 30.94148231 -53.0234375 21.703125 C-52.39152064 13.72291774 -49.47952411 6.84385499 -43.9375 1.0390625 C-29.64412397 -10.65087718 -14.76545213 -9.39619681 0 0 Z " fill="#648DC8" transform="translate(111.75,138.75)"/>
<path d="M0 0 C5.37538354 4.3247404 8.2722897 9.93869021 9.15625 16.7578125 C8.20332328 24.65349101 5.00669339 30.06563276 -1.21484375 35.00390625 C-6.51287498 38.53926546 -11.6519422 38.78177165 -17.78515625 37.98828125 C-23.93297352 36.49702667 -28.95894367 32.74961503 -32.28125 27.3828125 C-34.72261466 20.91319615 -35.57632445 14.72672208 -32.78125 8.3203125 C-29.55586715 2.54197643 -24.87306079 -1.48621552 -18.84375 -4.1171875 C-11.53907422 -5.14240515 -6.11108399 -4.24380833 0 0 Z " fill="#EB5B91" transform="translate(42.28125,111.6171875)"/>
<path d="M0 0 C8.80227374 7.66208285 13.08845201 18.36467795 17.26171875 28.96875 C17.52968262 29.63165039 17.79764648 30.29455078 18.07373047 30.97753906 C20.26175998 36.54388615 21.35955945 42.1079358 22.41796875 47.9921875 C22.9965645 51.26087081 22.9965645 51.26087081 26.26171875 52.96875 C26.63205097 56.36346203 26.87093577 58.85782484 25.19921875 61.90625 C22.14195699 63.5828129 19.67108995 63.33403977 16.26171875 62.96875 C14.32421875 61.90625 14.32421875 61.90625 13.26171875 59.96875 C12.87180187 55.60168092 12.79847806 53.66361103 15.26171875 49.96875 C14.85005305 47.34065228 14.33799866 44.956733 13.63671875 42.40625 C13.44650146 41.68679199 13.25628418 40.96733398 13.06030273 40.22607422 C10.72699315 31.64588914 7.34623289 23.8645721 3.21484375 16 C2.26171875 13.96875 2.26171875 13.96875 2.26171875 11.96875 C1.60171875 11.96875 0.94171875 11.96875 0.26171875 11.96875 C-0.33640625 11.040625 -0.93453125 10.1125 -1.55078125 9.15625 C-3.81862517 5.85167743 -5.08000458 4.50012163 -8.73828125 2.96875 C-13.21207567 2.31801627 -15.02537079 2.44950419 -18.71484375 5.13671875 C-30.87555416 15.8633027 -35.65189375 36.54532852 -37.73828125 51.96875 C-36.74828125 52.29875 -35.75828125 52.62875 -34.73828125 52.96875 C-34.37912632 59.31382042 -34.37912632 59.31382042 -35.80078125 61.90625 C-38.82465601 63.5645039 -41.36215108 63.27019019 -44.73828125 62.96875 C-47.73828125 60.96875 -47.73828125 60.96875 -48.67578125 58.15625 C-48.73828125 54.96875 -48.73828125 54.96875 -46.86328125 52.83203125 C-44.03784812 49.02496786 -43.5820391 45.57060488 -42.80078125 40.96875 C-39.75293135 25.01397128 -33.80857305 6.94965804 -20.05078125 -2.96875 C-12.58865308 -6.39729537 -6.52101801 -4.69424726 0 0 Z " fill="#939494" transform="translate(169.73828125,7.03125)"/>
<path d="M0 0 C3.99841378 4.09593607 4.85338679 6.84940851 4.875 12.5625 C4.89175781 13.58214844 4.90851563 14.60179688 4.92578125 15.65234375 C4.29623093 20.80382538 1.48313029 24.42308664 -2.5703125 27.609375 C-7.55795094 30.32231641 -12.85693853 30.04648306 -18.1875 28.625 C-22.80806701 25.78157415 -26.49473227 22.76386198 -28.1015625 17.4140625 C-28.91747829 11.85445023 -28.57619951 6.66826422 -25.24609375 1.9296875 C-22.17276172 -1.53723201 -19.14881717 -3.40691154 -14.58203125 -4.25390625 C-9.13442501 -4.56151243 -4.31455804 -3.39075972 0 0 Z " fill="#79B346" transform="translate(81.4375,93.375)"/>
<path d="M0 0 C0.67095703 0.58007812 0.67095703 0.58007812 1.35546875 1.171875 C6.11977586 5.27588369 10.94521772 9.25571683 16 13 C10.25 12.125 10.25 12.125 8 11 C8 10.34 8 9.68 8 9 C7.401875 8.855625 6.80375 8.71125 6.1875 8.5625 C4.43849596 8.1127561 2.71322977 7.57107659 1 7 C-0.00235148 18.79794778 -0.76241813 28.26094803 5 39 C5 39.66 5 40.32 5 41 C6.32 41 7.64 41 9 41 C9.04253906 41.61488281 9.08507812 42.22976562 9.12890625 42.86328125 C9.83510209 45.28940807 9.83510209 45.28940807 12.65234375 46.23046875 C13.73644531 46.54628906 14.82054688 46.86210937 15.9375 47.1875 C17.01902344 47.51105469 18.10054687 47.83460938 19.21484375 48.16796875 C20.13394531 48.44253906 21.05304688 48.71710938 22 49 C22.66 49.33 23.32 49.66 24 50 C25.90337114 50.0958742 27.81015826 50.12630695 29.71594238 50.12698364 C30.9327066 50.12980347 32.14947083 50.13262329 33.40310669 50.13552856 C34.75897232 50.133584 36.1148378 50.13153581 37.47070312 50.12939453 C38.89317876 50.13074906 40.31565405 50.13252928 41.73812866 50.13470459 C45.6104677 50.13927612 49.48278018 50.13748963 53.35511971 50.1343255 C57.41037188 50.13179653 61.46562176 50.13414131 65.52087402 50.13571167 C72.34041756 50.13753345 79.15995029 50.13512857 85.97949219 50.13037109 C93.84665948 50.12494589 101.71380078 50.12667838 109.58096743 50.1321975 C116.34119529 50.13674925 123.10141537 50.13736858 129.86164427 50.13475883 C133.89617557 50.13320514 137.93069471 50.13297697 141.96522522 50.13629532 C145.76712876 50.13920339 149.5689992 50.13714482 153.3708992 50.13140106 C154.75994945 50.13008837 156.14900252 50.13044197 157.53805161 50.13266373 C165.08990601 50.14362022 172.503701 49.95719069 180 49 C180 48.34 180 47.68 180 47 C182.97 47 185.94 47 189 47 C189.33 46.01 189.66 45.02 190 44 C190.5775 43.443125 191.155 42.88625 191.75 42.3125 C197.19735609 36.71382846 199.96754852 31.00891859 200.31640625 23.234375 C200.35830078 22.34492188 200.40019531 21.45546875 200.44335938 20.5390625 C200.48267578 19.61867187 200.52199219 18.69828125 200.5625 17.75 C200.62727539 16.34621094 200.62727539 16.34621094 200.69335938 14.9140625 C200.7991805 12.60951359 200.90126557 10.30486161 201 8 C201.33 8 201.66 8 202 8 C203.15916256 20.76645249 203.86039999 32.20039361 195.53515625 42.87890625 C189.34067756 49.62724421 181.24906834 53.71968401 172.07008839 54.13142776 C170.43725674 54.13588976 170.43725674 54.13588976 168.7714386 54.14044189 C167.51689377 54.14615204 166.26234894 54.15186218 164.9697876 54.15774536 C163.58703623 54.15899057 162.20428475 54.1601157 160.8215332 54.16113281 C159.35920589 54.16576434 157.89687978 54.17078945 156.43455505 54.17617798 C152.46736451 54.18927315 148.50019088 54.19574149 144.53298211 54.20018864 C142.05121844 54.20312448 139.56945934 54.20723029 137.08769798 54.21169281 C129.31358688 54.22536117 121.53948628 54.23503063 113.76536399 54.2388947 C104.80871737 54.24337167 95.85222365 54.26090552 86.89562351 54.2898953 C79.96123804 54.31155608 73.02689546 54.32160135 66.09247655 54.32293582 C61.95621205 54.32398085 57.82009139 54.32982392 53.68386269 54.34775543 C49.78910793 54.36431201 45.89460398 54.36635513 41.99982643 54.35761642 C40.57690252 54.35685005 39.15396469 54.36113564 37.73107529 54.37107468 C24.75905112 54.45631155 15.27479711 52.78262337 5.4375 43.9375 C-2.80164399 35.20400737 -3.66712101 26.13956851 -3.37109375 14.6484375 C-2.70057634 2.70057634 -2.70057634 2.70057634 0 0 Z " fill="#E3A957" transform="translate(59,186)"/>
<path d="M0 0 C-0.33 1.32 -0.66 2.64 -1 4 C-3.475 3.505 -3.475 3.505 -6 3 C-6 2.34 -6 1.68 -6 1 C-7.70914889 1.03345309 -9.41760021 1.10326828 -11.125 1.1875 C-12.07632813 1.22230469 -13.02765625 1.25710937 -14.0078125 1.29296875 C-19.37507582 2.56121243 -22.17010763 5.80389178 -25.1953125 10.1640625 C-29.1619831 17.27837455 -32.61700632 24.17180821 -35 32 C-35.44666016 33.40765625 -35.44666016 33.40765625 -35.90234375 34.84375 C-37.54965251 40.3702052 -38.62912238 45.23304482 -38 51 C-37.01 51.66 -36.02 52.32 -35 53 C-34.62966778 56.39471203 -34.39078298 58.88907484 -36.0625 61.9375 C-39.08637476 63.5957539 -41.62386983 63.30144019 -45 63 C-48 61 -48 61 -48.9375 58.1875 C-49 55 -49 55 -47.125 52.86328125 C-44.29956687 49.05621786 -43.84375785 45.60185488 -43.0625 41 C-40.0146501 25.04522128 -34.0702918 6.98090804 -20.3125 -2.9375 C-12.6760493 -6.44613951 -6.80110863 -4.30274219 0 0 Z " fill="#212223" transform="translate(170,7)"/>
<path d="M0 0 C3.5420773 3.09931764 4.84372778 4.88656044 5.5 9.5625 C4.97300076 13.18561975 4.22264703 15.11879089 2 18 C-1.70746082 20.47164055 -4.70196862 20.77851134 -9 20 C-11.80346167 18.65241328 -12.85988865 17.45329837 -15 15 C-16.26372224 10.91148688 -16.2741007 8.79184647 -14.875 4.75 C-11.00261198 -0.92950242 -6.4046333 -2.31134952 0 0 Z " fill="#DE397D" transform="translate(61,50)"/>
<path d="M0 0 C0.9796875 0.00322266 1.959375 0.00644531 2.96875 0.00976562 C3.98453125 0.01814453 5.0003125 0.02652344 6.046875 0.03515625 C7.59375 0.04192383 7.59375 0.04192383 9.171875 0.04882812 C11.71360073 0.06059537 14.25520819 0.07703614 16.796875 0.09765625 C16.32560447 8.02574944 15.09258458 13.50623709 11.546875 20.59765625 C10.48668795 24.13161308 10.92053659 26.52970699 11.796875 30.09765625 C12.97835225 32.27884502 14.29299543 34.10865423 15.796875 36.09765625 C12.796875 36.09765625 12.796875 36.09765625 11.109375 34.59765625 C10.67625 34.10265625 10.243125 33.60765625 9.796875 33.09765625 C9.796875 34.08765625 9.796875 35.07765625 9.796875 36.09765625 C8.806875 35.76765625 7.816875 35.43765625 6.796875 35.09765625 C7.126875 30.47765625 7.456875 25.85765625 7.796875 21.09765625 C8.456875 21.09765625 9.116875 21.09765625 9.796875 21.09765625 C9.92964844 20.42347656 10.06242187 19.74929687 10.19921875 19.0546875 C10.89230833 15.62547957 11.62414545 12.20557196 12.359375 8.78515625 C12.62878906 7.53089844 12.89820313 6.27664062 13.17578125 4.984375 C13.38074219 4.03175781 13.58570313 3.07914063 13.796875 2.09765625 C11.08708376 2.18516621 8.38036752 2.29210518 5.671875 2.41015625 C4.53105469 2.44399414 4.53105469 2.44399414 3.3671875 2.47851562 C-1.56175097 2.71221529 -4.82608647 3.64701996 -9.203125 6.09765625 C-11.43359375 6.6875 -11.43359375 6.6875 -13.390625 7.03515625 C-17.43063386 8.16106036 -18.1133948 8.68809645 -20.203125 12.09765625 C-21.193125 12.42765625 -22.183125 12.75765625 -23.203125 13.09765625 C-23.533125 13.75765625 -23.863125 14.41765625 -24.203125 15.09765625 C-23.543125 15.42765625 -22.883125 15.75765625 -22.203125 16.09765625 C-22.821875 16.48953125 -23.440625 16.88140625 -24.078125 17.28515625 C-29.6164124 22.00898962 -30.19980354 31.21266902 -30.828125 38.09765625 C-30.95942739 39.76383825 -31.08666025 41.43037141 -31.203125 43.09765625 C-29.6253125 43.00484375 -29.6253125 43.00484375 -28.015625 42.91015625 C-24.01199383 43.10705614 -22.30338613 43.63568418 -19.203125 46.09765625 C-18.873125 47.08765625 -18.543125 48.07765625 -18.203125 49.09765625 C-16.70326891 50.76475971 -16.70326891 50.76475971 -15.203125 52.09765625 C-15.533125 52.75765625 -15.863125 53.41765625 -16.203125 54.09765625 C-16.533125 53.10765625 -16.863125 52.11765625 -17.203125 51.09765625 C-19.00245079 50.03048921 -19.00245079 50.03048921 -21.203125 49.09765625 C-21.96625 48.60265625 -22.729375 48.10765625 -23.515625 47.59765625 C-26.65115533 45.84759281 -29.74805678 45.03737 -33.203125 44.09765625 C-32.84815267 31.26540668 -32.02833347 18.68647088 -22.55859375 9.0390625 C-15.82736039 3.49109736 -8.74804599 -0.05086073 0 0 Z " fill="#E09D4B" transform="translate(105.203125,38.90234375)"/>
<path d="M0 0 C4.37823917 -0.04938149 8.75633146 -0.0857104 13.13476562 -0.10986328 C14.6247032 -0.11993043 16.11462097 -0.13358518 17.60449219 -0.15087891 C19.74419028 -0.17509653 21.88362753 -0.18647564 24.0234375 -0.1953125 C25.31169434 -0.20578613 26.59995117 -0.21625977 27.92724609 -0.22705078 C31 0 31 0 33 2 C33.88671875 4.609375 33.88671875 4.609375 34.6875 7.75 C34.95949219 8.77609375 35.23148438 9.8021875 35.51171875 10.859375 C36.03916132 14.25188561 35.65279576 16.64898178 35 20 C34.93539781 22.12411996 34.91388921 24.25002905 34.9375 26.375 C34.94652344 27.43460938 34.95554688 28.49421875 34.96484375 29.5859375 C34.97644531 30.38257812 34.98804688 31.17921875 35 32 C34.01 32 33.02 32 32 32 C32 23.75 32 15.5 32 7 C30.68 7 29.36 7 28 7 C28 5.35 28 3.7 28 2 C19.09 2 10.18 2 1 2 C0.67 4.64 0.34 7.28 0 10 C-0.185625 10.81082031 -0.37125 11.62164062 -0.5625 12.45703125 C-1.20679727 16.20200913 -1.06430401 19.89677838 -1 23.6875 C-0.86560226 31.73120453 -0.86560226 31.73120453 -2 34 C-2.66 34 -3.32 34 -4 34 C-4.3403125 34.928125 -4.3403125 34.928125 -4.6875 35.875 C-6.48547882 38.78601333 -7.6854279 39.15372627 -11 40 C-18.92987805 40.53506098 -18.92987805 40.53506098 -22 39 C-22 38.01 -22 37.02 -22 36 C-21.11957031 36.06960937 -20.23914063 36.13921875 -19.33203125 36.2109375 C-12.99178456 36.70620528 -12.99178456 36.70620528 -7.05859375 34.9453125 C-3.57355646 31.09616684 -3.16225159 26.94867349 -3 22 C-3.33 21.01 -3.66 20.02 -4 19 C-4.65466097 13.75198006 -4.03820885 9.56585569 -1.98046875 4.69140625 C-1.61203857 3.80783447 -1.2436084 2.9242627 -0.86401367 2.01391602 C-0.57888916 1.34932373 -0.29376465 0.68473145 0 0 Z " fill="#E39B3E" transform="translate(143,39)"/>
<path d="M0 0 C3.68435029 1.04736571 5.06058191 3.38348198 6.9375 6.55078125 C7.67240789 10.55194642 7.32564018 11.96857099 5.0625 15.36328125 C2.55605093 17.94344941 1.68288327 18.46796089 -1.875 18.86328125 C-5.7932645 18.47913767 -7.27543267 17.25821808 -10.0625 14.55078125 C-11.63185594 11.41206937 -11.41451103 9.01222303 -11.0625 5.55078125 C-8.03486999 1.10394968 -5.24561543 -0.34772072 0 0 Z " fill="#67518A" transform="translate(37.0625,82.44921875)"/>
<path d="M0 0 C0.33 0 0.66 0 1 0 C2.15916256 12.76645249 2.86039999 24.20039361 -5.46484375 34.87890625 C-10.97407646 40.88072918 -17.96017672 44.68497131 -26 46 C-28.09718643 46.08724401 -30.19685306 46.122011 -32.29585266 46.12025452 C-33.56484909 46.12162918 -34.83384552 46.12300385 -36.14129639 46.12442017 C-37.53991723 46.12088148 -38.93853783 46.11724668 -40.3371582 46.11352539 C-41.81570941 46.1132432 -43.29426076 46.11340188 -44.77281189 46.1139679 C-48.78066475 46.11425462 -52.78848765 46.10837804 -56.79633355 46.10139394 C-60.98703881 46.09513965 -65.17774477 46.09455496 -69.36845398 46.09336853 C-77.30147076 46.09026134 -85.23447375 46.08205619 -93.16748446 46.07201904 C-102.20007479 46.06083891 -111.23266577 46.05534266 -120.26526129 46.05032361 C-138.84351535 46.03987308 -157.42175656 46.02228548 -176 46 C-176 45.67 -176 45.34 -176 45 C-174.86831563 44.99641747 -174.86831563 44.99641747 -173.71376896 44.99276257 C-155.33438661 44.93356035 -136.95513795 44.85797687 -118.57589817 44.76428509 C-109.68773651 44.71936868 -100.79961455 44.67994447 -91.91137695 44.65356445 C-84.16206721 44.63055068 -76.41288352 44.597115 -68.66367382 44.55129844 C-64.56261938 44.52741169 -60.46168945 44.50865318 -56.36056709 44.50238609 C-52.49536016 44.49631457 -48.63047158 44.47624068 -44.76538277 44.44572449 C-43.3517478 44.43697725 -41.93807116 44.43321477 -40.52441025 44.43499184 C-32.70137878 44.44171707 -26.26301673 43.90668595 -19 41 C-17.669834 40.65424388 -16.33656041 40.32014867 -15 40 C-14.01 39.67 -13.02 39.34 -12 39 C-11.67 38.01 -11.34 37.02 -11 36 C-10.4225 35.443125 -9.845 34.88625 -9.25 34.3125 C-3.80264391 28.71382846 -1.03245148 23.00891859 -0.68359375 15.234375 C-0.64169922 14.34492188 -0.59980469 13.45546875 -0.55664062 12.5390625 C-0.51732422 11.61867187 -0.47800781 10.69828125 -0.4375 9.75 C-0.37272461 8.34621094 -0.37272461 8.34621094 -0.30664062 6.9140625 C-0.2008195 4.60951359 -0.09873443 2.30486161 0 0 Z " fill="#FEF7D9" transform="translate(260,194)"/>
<path d="M0 0 C8.14230993 0.20732734 13.61054968 2.51894291 19.3125 8.375 C22.82263541 13.83521064 24.78935809 18.45960439 24 25 C21.97333489 32.16343265 18.16608742 36.88538968 12 41 C6.42976512 43.47565995 0.8882176 43.33480618 -5 42 C-5.66 41.34 -6.32 40.68 -7 40 C-6.04738281 40.01160156 -5.09476563 40.02320313 -4.11328125 40.03515625 C-2.85902344 40.04417969 -1.60476562 40.05320313 -0.3125 40.0625 C0.92886719 40.07410156 2.17023437 40.08570313 3.44921875 40.09765625 C6.46235454 40.01478673 9.08275339 39.70839449 12 39 C11.67 37.68 11.34 36.36 11 35 C12.65 34.34 14.3 33.68 16 33 C16 31.68 16 30.36 16 29 C15.34 29 14.68 29 14 29 C14.1875 27.125 14.1875 27.125 15 25 C17.5625 23.75 17.5625 23.75 20 23 C19.5649727 16.80086093 18.26234609 13.26184853 15 8 C15 7.34 15 6.68 15 6 C13.68 6 12.36 6 11 6 C11 5.34 11 4.68 11 4 C7.37 3.34 3.74 2.68 0 2 C0 1.34 0 0.68 0 0 Z " fill="#EEA7C4" transform="translate(27,107)"/>
<path d="M0 0 C1.32 0.66 2.64 1.32 4 2 C3.96519531 2.84304687 3.93039063 3.68609375 3.89453125 4.5546875 C3.86746094 5.65039062 3.84039062 6.74609375 3.8125 7.875 C3.77769531 8.96554688 3.74289063 10.05609375 3.70703125 11.1796875 C3.80371094 12.11039063 3.90039062 13.04109375 4 14 C4.99 14.66 5.98 15.32 7 16 C7.37033222 19.39471203 7.60921702 21.88907484 5.9375 24.9375 C2.91362524 26.5957539 0.37613017 26.30144019 -3 26 C-6 24 -6 24 -6.9375 21.1875 C-7 18 -7 18 -5.11328125 15.7265625 C-2.64506957 12.54206758 -2.04301695 10.11293389 -1.25 6.1875 C-1.00765625 5.02605469 -0.7653125 3.86460938 -0.515625 2.66796875 C-0.34546875 1.78753906 -0.1753125 0.90710937 0 0 Z " fill="#1B1F1F" transform="translate(128,44)"/>
<path d="M0 0 C0.33 0 0.66 0 1 0 C4.02014222 21.21816351 7.02001807 42.43184791 9.52148438 63.71826172 C10.40742595 71.22189031 11.34809451 78.71475198 12.35546875 86.203125 C12.47128799 87.06689255 12.58710724 87.9306601 12.70643616 88.82060242 C13.27264269 93.03674883 13.84493072 97.25194488 14.42602539 101.46606445 C14.63316207 102.9994865 14.84012071 104.5329326 15.046875 106.06640625 C15.14352951 106.75144226 15.24018402 107.43647827 15.33976746 108.14227295 C15.9624926 112.81150906 16.07986064 117.30229628 16 122 C15.67 122 15.34 122 15 122 C13.01791577 109.10323862 11.21607104 96.20702248 9.67236328 83.25 C9.31004388 80.22818659 8.93674222 77.20785773 8.5625 74.1875 C8.45228516 73.24479248 8.34207031 72.30208496 8.22851562 71.33081055 C7.63614959 66.60718781 6.82312293 62.16120481 5.46875 57.59375 C3.72859508 51.53309903 3.29817963 45.58664805 2.9375 39.3125 C2.44320818 31.83990839 1.90737528 24.41899502 0.875 17 C0.1004286 11.28753596 -0.24922143 5.75978427 0 0 Z " fill="#FAE4BD" transform="translate(244,72)"/>
<path d="M0 0 C3.52076232 -0.05855176 7.0413976 -0.0937806 10.5625 -0.125 C12.0484668 -0.15013672 12.0484668 -0.15013672 13.56445312 -0.17578125 C19.12728491 -0.21274359 23.74843075 0.12917449 29 2 C29 2.33 29 2.66 29 3 C21.08 3 13.16 3 5 3 C5.66 5.97 6.32 8.94 7 12 C8.32 11.67 9.64 11.34 11 11 C10.85879984 13.58366245 10.71221667 16.16682885 10.5625 18.75 C10.50352539 19.84441406 10.50352539 19.84441406 10.44335938 20.9609375 C10.23852902 24.4272973 9.9147998 27.65333026 9 31 C8.34 31 7.68 31 7 31 C7 31.99 7 32.98 7 34 C6.34 34 5.68 34 5 34 C5 34.66 5 35.32 5 36 C4.01 35.67 3.02 35.34 2 35 C2.66 34.01 3.32 33.02 4 32 C6.41609614 27.761084 6.55465284 24.83340329 6 20 C5.00087857 18.66600819 4.00079253 17.33273857 3 16 C2.05078125 13.37890625 2.05078125 13.37890625 1.3125 10.5625 C1.06113281 9.63566406 0.80976563 8.70882812 0.55078125 7.75390625 C0.01570149 5.07850745 -0.04018304 2.71734242 0 0 Z " fill="#E79D42" transform="translate(195,39)"/>
<path d="M0 0 C6.79223055 3.0495729 10.372948 7.54978088 14 14 C15.52738202 18.04704887 16.31915905 21.68445029 16.6328125 25.9921875 C16.75849609 27.66861328 16.75849609 27.66861328 16.88671875 29.37890625 C16.96535156 30.53261719 17.04398438 31.68632813 17.125 32.875 C17.21136719 34.02097656 17.29773438 35.16695312 17.38671875 36.34765625 C17.81444499 42.24756269 18.10173082 48.0850792 18 54 C17.34 54 16.68 54 16 54 C15.89042969 53.11183594 15.78085938 52.22367188 15.66796875 51.30859375 C15.42070981 49.31645059 15.17298109 47.32435486 14.91748047 45.33325195 C14.34594487 40.86686085 13.82252591 36.3988047 13.33984375 31.921875 C13.10179823 29.84372298 12.86351841 27.76559779 12.625 25.6875 C12.52340576 24.67937256 12.42181152 23.67124512 12.31713867 22.63256836 C12.14855347 21.2114978 12.14855347 21.2114978 11.9765625 19.76171875 C11.88455566 18.91569092 11.79254883 18.06966309 11.69775391 17.19799805 C10.7967457 14.35972763 9.41881367 13.63875068 7 12 C6.29788106 10.34795544 5.63028587 8.68076231 5 7 C4.01904252 5.98131338 3.02297922 4.97648017 2 4 C2 3.34 2 2.68 2 2 C1.34 2 0.68 2 0 2 C0 1.34 0 0.68 0 0 Z " fill="#E09B42" transform="translate(228,44)"/>
<path d="M0 0 C0.66 0.33 1.32 0.66 2 1 C1.44782652 3.39275175 0.77493483 5.62223901 -0.0625 7.9375 C-0.97649771 10.92322585 -1.40561427 12.91733152 -1 16 C0.26352052 18.32511472 0.26352052 18.32511472 2 20 C2.66 20 3.32 20 4 20 C4 20.66 4 21.32 4 22 C6.475 22.99 6.475 22.99 9 24 C9 24.66 9 25.32 9 26 C16.21157864 25.67948539 20.74155286 24.25844714 26 19 C27.21321333 15.61215901 27.10128696 12.31840018 27.0625 8.75 C27.05347656 7.67234375 27.04445313 6.5946875 27.03515625 5.484375 C27.02355469 4.66453125 27.01195313 3.8446875 27 3 C29.67151851 5.67151851 29.29873672 7.09182532 29.3125 10.8125 C29.32925781 11.85019531 29.34601563 12.88789062 29.36328125 13.95703125 C28.79436807 18.72244377 26.65219621 21.30008212 23.4375 24.75 C19.40961841 27.91619548 14.99774339 28.25425722 10 28 C4.77524492 26.60673198 1.4640555 24.20578157 -1.8359375 20.0234375 C-4.54495336 15.31447705 -4.50785967 10.22585772 -3.1875 5.0625 C-2 2 -2 2 0 0 Z " fill="#C1DEAD" transform="translate(57,95)"/>
<path d="M0 0 C0.33 0 0.66 0 1 0 C1.33 2.64 1.66 5.28 2 8 C3.2981424 6.8509288 3.2981424 6.8509288 4 4 C8.875 4.875 8.875 4.875 10 6 C10.45681382 12.16698656 10.45681382 12.16698656 8.9375 14.9375 C5.88023824 16.6140629 3.4093712 16.36528977 0 16 C-1.9375 14.9375 -1.9375 14.9375 -3 13 C-3.3125 9.4375 -3.3125 9.4375 -3 6 C-2.34 5.34 -1.68 4.68 -1 4 C-0.3574765 1.93125966 -0.3574765 1.93125966 0 0 Z " fill="#232124" transform="translate(186,54)"/>
<path d="M0 0 C-0.33 1.32 -0.66 2.64 -1 4 C-3.475 3.505 -3.475 3.505 -6 3 C-6 2.34 -6 1.68 -6 1 C-14.53983665 1.24072025 -14.53983665 1.24072025 -22 5 C-22.33 3.35 -22.66 1.7 -23 0 C-15.01521987 -6.87578289 -8.55281922 -5.41096726 0 0 Z " fill="#262628" transform="translate(170,7)"/>
<path d="M0 0 C4.37823917 -0.04938149 8.75633146 -0.0857104 13.13476562 -0.10986328 C14.6247032 -0.11993043 16.11462097 -0.13358518 17.60449219 -0.15087891 C19.74419028 -0.17509653 21.88362753 -0.18647564 24.0234375 -0.1953125 C25.31169434 -0.20578613 26.59995117 -0.21625977 27.92724609 -0.22705078 C31 0 31 0 33 2 C33.88671875 4.609375 33.88671875 4.609375 34.6875 7.75 C34.95949219 8.77609375 35.23148438 9.8021875 35.51171875 10.859375 C36.03916132 14.25188561 35.65279576 16.64898178 35 20 C34.93539781 22.12411996 34.91388921 24.25002905 34.9375 26.375 C34.94652344 27.43460938 34.95554688 28.49421875 34.96484375 29.5859375 C34.97644531 30.38257812 34.98804688 31.17921875 35 32 C34.01 32 33.02 32 32 32 C31.97494385 31.26885986 31.9498877 30.53771973 31.92407227 29.78442383 C31.80777359 26.46028583 31.68520072 23.13640759 31.5625 19.8125 C31.52318359 18.66201172 31.48386719 17.51152344 31.44335938 16.32617188 C31.40146484 15.21435547 31.35957031 14.10253906 31.31640625 12.95703125 C31.27974854 11.93585205 31.24309082 10.91467285 31.20532227 9.86254883 C31.03300562 6.62136969 31.03300562 6.62136969 30 2 C15.15 1.505 15.15 1.505 0 1 C0 0.67 0 0.34 0 0 Z " fill="#E5AD61" transform="translate(143,39)"/>
<path d="M0 0 C0.33 0 0.66 0 1 0 C1.08564209 0.79172607 1.17128418 1.58345215 1.25952148 2.39916992 C1.64986358 5.99553585 2.04364553 9.5915171 2.4375 13.1875 C2.57220703 14.43337891 2.70691406 15.67925781 2.84570312 16.96289062 C2.97783203 18.16494141 3.10996094 19.36699219 3.24609375 20.60546875 C3.42676392 22.26292114 3.42676392 22.26292114 3.61108398 23.95385742 C3.9537576 26.93954788 3.9537576 26.93954788 4.53442383 29.61328125 C5.32346854 33.65822151 5.22580907 37.70306582 5.25 41.8125 C5.270625 42.67681641 5.29125 43.54113281 5.3125 44.43164062 C5.3595053 52.21689374 3.75046576 58.35497595 -1.1875 64.5 C-1.71730469 65.1703125 -2.24710938 65.840625 -2.79296875 66.53125 C-3.19128906 67.0159375 -3.58960938 67.500625 -4 68 C-4.33 67.01 -4.66 66.02 -5 65 C-3.25 62.125 -3.25 62.125 -1 59 C2.84278748 53.30698152 3.14059337 48.01752396 3.125 41.25 C3.12757813 40.12078125 3.13015625 38.9915625 3.1328125 37.828125 C3.19354612 35.04978888 3.19354612 35.04978888 2 33 C1.5938135 30.45614587 1.24131074 27.93146311 0.9375 25.375 C0.84807129 24.62677979 0.75864258 23.87855957 0.66650391 23.10766602 C-0.18187788 15.39547161 -0.18768404 7.74718018 0 0 Z " fill="#E09E4D" transform="translate(255,162)"/>
<path d="M0 0 C3.42512916 3.69011049 4.14665797 7.72913651 5.1875 12.5 C5.36474609 13.25925781 5.54199219 14.01851562 5.72460938 14.80078125 C6.53419392 18.37045519 7 21.29379426 7 25 C6.34 25 5.68 25 5 25 C5.33 26.65 5.66 28.3 6 30 C5.01 29.67 4.02 29.34 3 29 C1.8125 26.4375 1.8125 26.4375 1 24 C0.67 24 0.34 24 0 24 C-0.33 21.03 -0.66 18.06 -1 15 C0.32 14.34 1.64 13.68 3 13 C2.7834375 12.39671875 2.566875 11.7934375 2.34375 11.171875 C2.0653125 10.37265625 1.786875 9.5734375 1.5 8.75 C1.08234375 7.56664062 1.08234375 7.56664062 0.65625 6.359375 C0 4 0 4 0 0 Z " fill="#454246" transform="translate(185,33)"/>
<path d="M0 0 C3.34155992 2.75678693 4.87593546 4.13154822 5.5 8.5 C4.97680228 12.16238406 4.2441898 14.09086508 2 17 C-1.69339817 19.46226545 -4.71454207 19.80705422 -9 19 C-11.57587822 17.59004561 -12.95125517 16.2024007 -15 14 C-15 13.01 -15 12.02 -15 11 C-13.02 11.99 -13.02 11.99 -11 13 C-11 13.99 -11 14.98 -11 16 C-8.36 16 -5.72 16 -3 16 C-3 15.34 -3 14.68 -3 14 C-1.68 13.67 -0.36 13.34 1 13 C1.08948558 8.52572076 0.85743651 4.39436211 0 0 Z " fill="#D784A8" transform="translate(61,51)"/>
<path d="M0 0 C0.33 0 0.66 0 1 0 C0.58403876 7.93195059 -0.71187578 13.42375156 -4.25 20.5 C-5.31018705 24.03395683 -4.87633841 26.43205074 -4 30 C-2.81852275 32.18118877 -1.50387957 34.01099798 0 36 C-3 36 -3 36 -4.6875 34.5 C-5.120625 34.005 -5.55375 33.51 -6 33 C-6 33.99 -6 34.98 -6 36 C-6.99 35.67 -7.98 35.34 -9 35 C-8.67 30.38 -8.34 25.76 -8 21 C-7.34 21 -6.68 21 -6 21 C-5.896875 20.360625 -5.79375 19.72125 -5.6875 19.0625 C-4.93436223 15.70761358 -3.87631882 12.54338156 -2.765625 9.29296875 C-1.73983882 6.22084383 -0.8633339 3.1212841 0 0 Z " fill="#ECA64D" transform="translate(121,39)"/>
<path d="M0 0 C0.99 0.33 1.98 0.66 3 1 C3 1.99 3 2.98 3 4 C3.66 4 4.32 4 5 4 C6.79595112 30.66296662 6.79595112 30.66296662 3 39 C1.4375 40.6875 1.4375 40.6875 0 42 C-0.33 42.66 -0.66 43.32 -1 44 C-3.0625 44.625 -3.0625 44.625 -5 45 C-4.00202478 42.93936599 -2.96984762 40.95032588 -1.78125 38.9921875 C4.334113 28.88692303 4.95037134 19.25315029 2.2578125 7.859375 C1.54831711 5.22410642 0.8021864 2.60836709 0 0 Z " fill="#E6A351" transform="translate(124,144)"/>
<path d="M0 0 C0 0.66 0 1.32 0 2 C-0.99 2 -1.98 2 -3 2 C-2.505 3.98 -2.505 3.98 -2 6 C-3.65 6 -5.3 6 -7 6 C-7.33 6.66 -7.66 7.32 -8 8 C-16.25 8 -24.5 8 -33 8 C-33 7.34 -33 6.68 -33 6 C-34.65 6 -36.3 6 -38 6 C-38 5.34 -38 4.68 -38 4 C-37.19046875 4.15855469 -36.3809375 4.31710938 -35.546875 4.48046875 C-24.80966279 6.05321019 -13.69394091 6.38792698 -4 1 C-2 0 -2 0 0 0 Z " fill="#E6A855" transform="translate(113,195)"/>
<path d="M0 0 C0.33 0 0.66 0 1 0 C3.50279675 11.94668313 4.94134138 23.84410803 6 36 C5.34 36 4.68 36 4 36 C3.79503906 35.01257813 3.59007812 34.02515625 3.37890625 33.0078125 C2.97478516 31.08582031 2.97478516 31.08582031 2.5625 29.125 C2.29566406 27.84882813 2.02882812 26.57265625 1.75390625 25.2578125 C1.1652174 22.13539756 1.1652174 22.13539756 0 20 C0.28241883 17.6599583 0.61250787 15.32495277 1 13 C0.34 13 -0.32 13 -1 13 C-0.67 8.71 -0.34 4.42 0 0 Z " fill="#E49A3C" transform="translate(249,126)"/>
<path d="M0 0 C0.66 0.33 1.32 0.66 2 1 C1.01 1.33 0.02 1.66 -1 2 C-1.0825 2.763125 -1.165 3.52625 -1.25 4.3125 C-2.16670476 7.59735871 -3.2722711 8.09885562 -6 10 C-7.2516467 12.08334635 -7.2516467 12.08334635 -8 14 C-8.66 14 -9.32 14 -10 14 C-10.19601027 16.70795726 -10.38204839 19.41599805 -10.5625 22.125 C-10.61857422 22.88554687 -10.67464844 23.64609375 -10.73242188 24.4296875 C-11.01498074 28.79993128 -10.93147699 32.68070669 -10 37 C-9.34 37 -8.68 37 -8 37 C-8 37.66 -8 38.32 -8 39 C-8.99 39 -9.98 39 -11 39 C-14.4278764 29.82700274 -14.04295933 20.56573916 -10.34765625 11.51953125 C-7.94318612 7.02421752 -4.65118535 2.32559268 0 0 Z " fill="#748EB5" transform="translate(72,137)"/>
<path d="M0 0 C2.88318505 1.1688588 4.62152671 2.21939884 6 5.0625 C7.32513352 8.93596723 8 11.85588665 8 16 C6.02 16.99 6.02 16.99 4 18 C-1.57051282 5.33974359 -1.57051282 5.33974359 0 0 Z " fill="#30302E" transform="translate(180,30)"/>
<path d="M0 0 C0.33 0 0.66 0 1 0 C2.08127223 11.90860628 2.89163074 22.55620157 -4 33 C-7.37350924 37.00805026 -11.13601632 40.8966557 -16 43 C-18.3125 42.6875 -18.3125 42.6875 -20 42 C-14.25 39 -14.25 39 -12 39 C-11.67 38.01 -11.34 37.02 -11 36 C-10.4225 35.443125 -9.845 34.88625 -9.25 34.3125 C-3.80264391 28.71382846 -1.03245148 23.00891859 -0.68359375 15.234375 C-0.64169922 14.34492188 -0.59980469 13.45546875 -0.55664062 12.5390625 C-0.51732422 11.61867187 -0.47800781 10.69828125 -0.4375 9.75 C-0.39431641 8.81414062 -0.35113281 7.87828125 -0.30664062 6.9140625 C-0.2008195 4.60951359 -0.09873443 2.30486161 0 0 Z " fill="#FAE4BF" transform="translate(260,194)"/>
<path d="M0 0 C2.6875 -0.375 2.6875 -0.375 6 0 C9.1671867 2.89177917 10.78208006 4.813547 11.5625 9.0625 C10.87020639 12.67781108 9.54408967 14.38108416 7 17 C4.20129973 18.39935013 2.09501208 18.25265405 -1 18 C-2.69140625 16.484375 -2.69140625 16.484375 -4 15 C-3.38511719 15.03480469 -2.77023438 15.06960937 -2.13671875 15.10546875 C-0.92435547 15.14607422 -0.92435547 15.14607422 0.3125 15.1875 C1.11300781 15.22230469 1.91351563 15.25710937 2.73828125 15.29296875 C5.05970424 15.1781049 5.05970424 15.1781049 6.78125 13.6875 C8.59219053 11.18004388 8.20005332 9.00079974 8 6 C7.01 6.495 7.01 6.495 6 7 C6 6.01 6 5.02 6 4 C3.03 3.505 3.03 3.505 0 3 C0 2.01 0 1.02 0 0 Z " fill="#B4ABC4" transform="translate(33,83)"/>
<path d="M0 0 C7.80489286 3.50423761 11.96166633 9.48021665 15.4375 17.1875 C16.10268534 20.51342671 16.13530828 23.61729308 16 27 C15.67 27 15.34 27 15 27 C14.84144531 26.25234375 14.68289062 25.5046875 14.51953125 24.734375 C13.10670903 18.7708602 12.27511607 15.51674405 7 12 C6.27840576 10.35636866 5.60648579 8.68949614 5 7 C4.01904252 5.98131338 3.02297922 4.97648017 2 4 C2 3.34 2 2.68 2 2 C1.34 2 0.68 2 0 2 C0 1.34 0 0.68 0 0 Z " fill="#EDBE7C" transform="translate(228,44)"/>
<path d="M0 0 C0.99 0.33 1.98 0.66 3 1 C-1.43469714 5.70346666 -6.3800962 10.92556535 -13 12 C-15.4157906 12.06831987 -17.83334713 12.08487642 -20.25 12.0625 C-21.51328125 12.05347656 -22.7765625 12.04445312 -24.078125 12.03515625 C-25.04234375 12.02355469 -26.0065625 12.01195312 -27 12 C-27 11.67 -27 11.34 -27 11 C-25.54166667 10.70833333 -24.08333333 10.41666667 -22.625 10.125 C-21.71878906 9.94324219 -20.81257813 9.76148438 -19.87890625 9.57421875 C-17.99168366 9.1977985 -16.10368137 8.82526187 -14.21484375 8.45703125 C-13.33957031 8.28558594 -12.46429688 8.11414063 -11.5625 7.9375 C-10.35787109 7.70353516 -10.35787109 7.70353516 -9.12890625 7.46484375 C-6.8296257 7.00241588 -6.8296257 7.00241588 -4 6 C-3.65657551 4.66923011 -3.32380126 3.33568021 -3 2 C-2.01 1.34 -1.02 0.68 0 0 Z " fill="#7392BA" transform="translate(111,181)"/>
<path d="M0 0 C0.33 0 0.66 0 1 0 C1.60950463 10.80177653 0.67533223 18.88646252 -6.375 27.375 C-9.33880199 30.51052442 -12.16978928 32.99784439 -16 35 C-16.99 34.67 -17.98 34.34 -19 34 C-18.27554688 33.56171875 -17.55109375 33.1234375 -16.8046875 32.671875 C-9.131503 27.63826597 -4.8599612 22.77605422 -2 14 C-1.04047011 9.34745018 -0.40596019 4.73153599 0 0 Z " fill="#DFEEF7" transform="translate(121,157)"/>
<path d="M0 0 C2.97243272 2.71396031 3.90473931 4.69382936 4.203125 8.78515625 C4.30745082 16.07926978 3.59116071 22.16735598 1 29 C0.67 29 0.34 29 0 29 C0.165 27.9275 0.33 26.855 0.5 25.75 C1.21160726 20.17741358 1.08411046 14.60736426 1 9 C0.34 9 -0.32 9 -1 9 C-1.07427838 5.65747276 -1.06546953 3.1964086 0 0 Z " fill="#7493B7" transform="translate(117,147)"/>
<path d="M0 0 C8.23751166 0.20975145 13.61182861 2.61182861 19.4375 8.4375 C21.20438876 11.33519756 21.68761942 13.6419088 22 17 C18.20486142 14.64439674 16.73399187 12.07488089 15 8 C15 7.34 15 6.68 15 6 C13.68 6 12.36 6 11 6 C11 5.34 11 4.68 11 4 C7.37 3.34 3.74 2.68 0 2 C0 1.34 0 0.68 0 0 Z " fill="#DA7B9F" transform="translate(27,107)"/>
<path d="M0 0 C-6.27559055 4.18372703 -6.27559055 4.18372703 -10 4.875 C-13.35017174 5.63825519 -13.35017174 5.63825519 -15.8125 8.0625 C-16.204375 8.701875 -16.59625 9.34125 -17 10 C-17.99 10.33 -18.98 10.66 -20 11 C-20.33 11.66 -20.66 12.32 -21 13 C-21.33 13.66 -21.66 14.32 -22 15 C-22.99 15.33 -23.98 15.66 -25 16 C-22.69551967 8.96398028 -16.96686837 4.93754669 -10.9375 1 C-7.09076368 -0.30952726 -4.04986177 -0.20947561 0 0 Z " fill="#DE9D49" transform="translate(102,41)"/>
<path d="M0 0 C4.39656173 -0.02465504 8.7930872 -0.04283842 13.18969727 -0.05493164 C14.68644918 -0.05997121 16.18319616 -0.06680287 17.67993164 -0.07543945 C19.82699807 -0.08752159 21.97399962 -0.09323191 24.12109375 -0.09765625 C26.06133423 -0.10551147 26.06133423 -0.10551147 28.04077148 -0.11352539 C31 0 31 0 32 1 C32.04063832 2.66617115 32.042721 4.33388095 32 6 C31.01 6 30.02 6 29 6 C29 4.35 29 2.7 29 1 C20.09 1 11.18 1 2 1 C1.67 3.64 1.34 6.28 1 9 C0.01 9.495 0.01 9.495 -1 10 C-0.67 6.7 -0.34 3.4 0 0 Z " fill="#E59532" transform="translate(142,40)"/>
<path d="M0 0 C0.66 0.33 1.32 0.66 2 1 C2 2.98 2 4.96 2 7 C2.66 7.33 3.32 7.66 4 8 C4 8.99 4 9.98 4 11 C3.01 10.67 2.02 10.34 1 10 C1 10.66 1 11.32 1 12 C1.66 12.33 2.32 12.66 3 13 C2.34 13 1.68 13 1 13 C0.67 13.99 0.34 14.98 0 16 C-0.99 15.67 -1.98 15.34 -3 15 C-3.6875 11.6875 -3.6875 11.6875 -4 8 C-2.625 6.375 -2.625 6.375 -1 5 C-0.27802838 2.39388923 -0.27802838 2.39388923 0 0 Z " fill="#1D1C1C" transform="translate(126,52)"/>
<path d="M0 0 C0.66 0.33 1.32 0.66 2 1 C2.35915493 7.34507042 2.35915493 7.34507042 0.9375 9.9375 C-2.08637476 11.5957539 -4.62386983 11.30144019 -8 11 C-11 9 -11 9 -11.6875 5.875 C-11.8421875 4.451875 -11.8421875 4.451875 -12 3 C-11.01 3 -10.02 3 -9 3 C-9 4.65 -9 6.3 -9 8 C-8.34 8 -7.68 8 -7 8 C-6.67 7.34 -6.34 6.68 -6 6 C-4.35 6.33 -2.7 6.66 -1 7 C-0.25042843 3.52852158 -0.25042843 3.52852158 0 0 Z " fill="#8A8989" transform="translate(133,59)"/>
<path d="M0 0 C9.24096386 -0.31325301 9.24096386 -0.31325301 13 2 C14.87893149 3.93871568 16.62400249 5.9488567 18.3515625 8.0234375 C20.11993502 10.14380835 22.00879263 12.08844092 24 14 C23.67 14.66 23.34 15.32 23 16 C22.42894531 15.33613281 21.85789062 14.67226562 21.26953125 13.98828125 C14.82655595 6.97168653 9.20856816 3.74236356 0 1 C0 0.67 0 0.34 0 0 Z " fill="#F1CF96" transform="translate(98,125)"/>
<path d="M0 0 C0.66 0.33 1.32 0.66 2 1 C2.35915493 7.34507042 2.35915493 7.34507042 0.9375 9.9375 C-2.11976176 11.6140629 -4.5906288 11.36528977 -8 11 C-9.9375 9.9375 -9.9375 9.9375 -11 8 C-11.1875 4.3125 -11.1875 4.3125 -11 1 C-10.01 1.33 -9.02 1.66 -8 2 C-7.67 3.98 -7.34 5.96 -7 8 C-5.16299211 8.77242269 -5.16299211 8.77242269 -3 9 C-1.10649669 8.02478463 -1.10649669 8.02478463 0 6 C0.25048636 2.87450983 0.25048636 2.87450983 0 0 Z " fill="#7B7A74" transform="translate(194,59)"/>
<path d="M0 0 C0.33 0 0.66 0 1 0 C1.25 6.625 1.25 6.625 -1 10 C0.65 10 2.3 10 4 10 C4 10.66 4 11.32 4 12 C4.66 12.33 5.32 12.66 6 13 C2.04 13 -1.92 13 -6 13 C-6 12.01 -6 11.02 -6 10 C-5.3503125 9.38125 -5.3503125 9.38125 -4.6875 8.75 C-2.20676561 6.17738656 -1.31267848 3.31295046 0 0 Z " fill="#E6B375" transform="translate(92,112)"/>
<path d="M0 0 C0.99 0 1.98 0 3 0 C3.66 0.66 4.32 1.32 5 2 C5.99 2 6.98 2 8 2 C8.66 1.34 9.32 0.68 10 0 C10.99 0.99 11.98 1.98 13 3 C12 5 12 5 11 6 C11.33 6.99 11.66 7.98 12 9 C11.67 9.66 11.34 10.32 11 11 C10.34 11 9.68 11 9 11 C8.401875 10.071875 7.80375 9.14375 7.1875 8.1875 C4.97238707 4.95976402 3.34199424 3.85666346 0 2 C0 1.34 0 0.68 0 0 Z " fill="#5A5A5B" transform="translate(161,8)"/>
<path d="M0 0 C0.66 0 1.32 0 2 0 C2.90483637 5.36489595 3.12303662 10.50317457 3.0625 15.9375 C3.05798828 16.71673828 3.05347656 17.49597656 3.04882812 18.29882812 C3.03716908 20.19925268 3.01923877 22.09963706 3 24 C2.67 24 2.34 24 2 24 C-0.63537118 16.09388645 -0.17981101 8.23134837 0 0 Z " fill="#EEC38B" transform="translate(248,108)"/>
<path d="M0 0 C0.33 0 0.66 0 1 0 C2.34449261 5.63903699 3.59356606 11.2083163 4 17 C3.34 17.66 2.68 18.32 2 19 C-0.81412376 12.43371122 -2.34802849 7.04408546 0 0 Z " fill="#DA749D" transform="translate(9,121)"/>
<path d="M0 0 C0.33 0 0.66 0 1 0 C0.65078848 6.65910239 -0.07286889 11.92057385 -3 18 C-4.06073945 20.98062985 -5.03655015 23.98665685 -6 27 C-6.33 27 -6.66 27 -7 27 C-6.91195873 25.4365085 -6.80376854 23.87414611 -6.6875 22.3125 C-6.62949219 21.44238281 -6.57148437 20.57226562 -6.51171875 19.67578125 C-5.91880442 16.57542769 -4.63603665 14.6831001 -3 12 C-2.36479388 9.9166285 -1.80225637 7.80977762 -1.3125 5.6875 C-1.06113281 4.61886719 -0.80976562 3.55023438 -0.55078125 2.44921875 C-0.27814453 1.23685547 -0.27814453 1.23685547 0 0 Z " fill="#FAE3BB" transform="translate(121,39)"/>
<path d="M0 0 C2.64 0.33 5.28 0.66 8 1 C8.66 3.97 9.32 6.94 10 10 C6.76414639 8.38207319 5.16753932 7.44195891 2.75 5 C2.22921875 4.484375 1.7084375 3.96875 1.171875 3.4375 C0 2 0 2 0 0 Z " fill="#86A0CC" transform="translate(63,179)"/>
<path d="M0 0 C1.9375 0.3125 1.9375 0.3125 4 1 C5.12178787 4.3653636 5.16771159 7.0203755 5.1875 10.5625 C5.20167969 11.71878906 5.21585937 12.87507813 5.23046875 14.06640625 C5 17 5 17 3 19 C2.95101562 18.21496094 2.90203125 17.42992188 2.8515625 16.62109375 C2.4379964 10.80977697 1.88217852 5.521057 0 0 Z " fill="#E3A34E" transform="translate(90,93)"/>
<path d="M0 0 C0.33 0 0.66 0 1 0 C1 7.59 1 15.18 1 23 C0.67 23 0.34 23 0 23 C-2.3316198 14.98505695 -3.24885549 7.91908525 0 0 Z " fill="#E2A64F" transform="translate(141,43)"/>
<path d="M0 0 C2 1 2 1 2.609375 2.6796875 C3.0870002 5.51678121 3.20758673 8.24796651 3.25 11.125 C3.27578125 12.17945313 3.3015625 13.23390625 3.328125 14.3203125 C3.21984375 15.20460937 3.1115625 16.08890625 3 17 C2.01 17.66 1.02 18.32 0 19 C0 12.73 0 6.46 0 0 Z " fill="#E89531" transform="translate(129,153)"/>
<path d="M0 0 C9.76374745 -0.57433809 9.76374745 -0.57433809 14 3 C14.33 3.99 14.66 4.98 15 6 C16.49985609 7.66710346 16.49985609 7.66710346 18 9 C17.67 9.66 17.34 10.32 17 11 C16.67 10.01 16.34 9.02 16 8 C14.20067421 6.93283296 14.20067421 6.93283296 12 6 C11.236875 5.505 10.47375 5.01 9.6875 4.5 C6.55129083 2.74955767 3.46984812 1.88447109 0 1 C0 0.67 0 0.34 0 0 Z " fill="#ECC086" transform="translate(72,82)"/>
<path d="M0 0 C2.81645906 3.18382329 3.72317437 5.75534029 4 10 C3.34 10.66 2.68 11.32 2 12 C-0.5 10.625 -0.5 10.625 -3 9 C-3 8.34 -3 7.68 -3 7 C-2.01 7 -1.02 7 0 7 C-0.66 6.34 -1.32 5.68 -2 5 C-2.33 4.34 -2.66 3.68 -3 3 C-2.01 3 -1.02 3 0 3 C0 2.01 0 1.02 0 0 Z " fill="#262729" transform="translate(130,55)"/>
<path d="M0 0 C7.70288993 -0.6212008 12.3723673 1.1258097 19 5 C16.45297384 6.27351308 15.5717055 5.80191925 12.875 5.0625 C12.15054688 4.86785156 11.42609375 4.67320312 10.6796875 4.47265625 C10.12539062 4.31667969 9.57109375 4.16070312 9 4 C9 3.34 9 2.68 9 2 C8.01 2.33 7.02 2.66 6 3 C2.8125 2.0625 2.8125 2.0625 0 1 C0 0.67 0 0.34 0 0 Z " fill="#7D9ABE" transform="translate(90,132)"/>
<path d="M0 0 C0.66 0.33 1.32 0.66 2 1 C1.29666462 3.97722547 0.41751463 6.85256543 -0.5625 9.75 C-0.96662109 10.94882813 -0.96662109 10.94882813 -1.37890625 12.171875 C-1.58386719 12.77515625 -1.78882813 13.3784375 -2 14 C-2.66 14 -3.32 14 -4 14 C-3.91231752 12.4156683 -3.80412671 10.83246433 -3.6875 9.25 C-3.60048828 7.92742187 -3.60048828 7.92742187 -3.51171875 6.578125 C-2.9358819 3.67696226 -1.92403852 2.20774393 0 0 Z " fill="#87B065" transform="translate(57,95)"/>
<path d="M0 0 C5 5 5 5 5.5 8.625 C5 12 5 12 2 15 C1.34 10.05 0.68 5.1 0 0 Z " fill="#E099BD" transform="translate(61,51)"/>
<path d="M0 0 C1.67542976 0.28604898 3.34385343 0.61781233 5 1 C4.42415568 3.38564077 3.77772405 5.66682784 3 8 C1.68 8 0.36 8 -1 8 C-1.04241723 5.66705225 -1.04092937 3.33297433 -1 1 C-0.67 0.67 -0.34 0.34 0 0 Z " fill="#E63780" transform="translate(58,56)"/>
<path d="M0 0 C2.50298434 2.93828597 3.46930939 5.17902761 4 9 C3.01 9.33 2.02 9.66 1 10 C0.34 9.01 -0.32 8.02 -1 7 C-1.66 7.66 -2.32 8.32 -3 9 C-3.66 7.02 -4.32 5.04 -5 3 C-4.34 3 -3.68 3 -3 3 C-3 3.66 -3 4.32 -3 5 C-2.34 4.67 -1.68 4.34 -1 4 C-0.34786708 1.97536745 -0.34786708 1.97536745 0 0 Z " fill="#5C5C5E" transform="translate(181,24)"/>
<path d="M0 0 C0.67095703 0.58007812 0.67095703 0.58007812 1.35546875 1.171875 C6.11977586 5.27588369 10.94521772 9.25571683 16 13 C10.25 12.125 10.25 12.125 8 11 C8 10.34 8 9.68 8 9 C7.13375 8.938125 7.13375 8.938125 6.25 8.875 C2.83120525 7.54546871 1.77333355 5.10333371 0 2 C0 1.34 0 0.68 0 0 Z " fill="#E8BA77" transform="translate(59,186)"/>
<path d="M0 0 C2.22112487 4.44224974 2.60616437 7.11643817 3 12 C2.67 12.66 2.34 13.32 2 14 C1.77532169 15.53668865 1.59203195 17.07968054 1.4375 18.625 C1.35371094 19.44226563 1.26992187 20.25953125 1.18359375 21.1015625 C1.12300781 21.72804688 1.06242188 22.35453125 1 23 C0.67 23 0.34 23 0 23 C0 15.41 0 7.82 0 0 Z " fill="#F0D6A7" transform="translate(176,45)"/>
<path d="M0 0 C2.96829447 3.3730619 4.06350475 6.62968884 5 11 C4.67568271 13.39994794 4.07817247 14.84365506 3 17 C0.9375 17.625 0.9375 17.625 -1 18 C-0.6875 16.0625 -0.6875 16.0625 0 14 C0.99 13.67 1.98 13.34 3 13 C2.7834375 12.39671875 2.566875 11.7934375 2.34375 11.171875 C2.0653125 10.37265625 1.786875 9.5734375 1.5 8.75 C1.08234375 7.56664062 1.08234375 7.56664062 0.65625 6.359375 C0 4 0 4 0 0 Z " fill="#878787" transform="translate(185,33)"/>
<path d="M0 0 C0.99 0.33 1.98 0.66 3 1 C3 1.99 3 2.98 3 4 C3.66 4 4.32 4 5 4 C5 8.62 5 13.24 5 18 C4.67 18 4.34 18 4 18 C3.79503906 17.03578125 3.59007813 16.0715625 3.37890625 15.078125 C2.97478516 13.18320313 2.97478516 13.18320313 2.5625 11.25 C2.16224609 9.37054688 2.16224609 9.37054688 1.75390625 7.453125 C1.2083765 4.95442915 0.64361188 2.47446899 0 0 Z " fill="#ECB368" transform="translate(124,144)"/>
<path d="M0 0 C0.66 0.33 1.32 0.66 2 1 C1.01 1.33 0.02 1.66 -1 2 C-1.0825 2.763125 -1.165 3.52625 -1.25 4.3125 C-2.16320457 7.58481639 -3.23968688 8.15979125 -6 10 C-6.66 10.99 -7.32 11.98 -8 13 C-8.51161216 10.18613309 -8.35700062 8.52338053 -6.734375 6.14453125 C-2.63306452 1.31653226 -2.63306452 1.31653226 0 0 Z " fill="#6989B8" transform="translate(72,137)"/>
<path d="M0 0 C0.33 0 0.66 0 1 0 C1.16682272 4.92127034 1.24828052 8.50343896 -1 13 C-1.99 13 -2.98 13 -4 13 C-3.74438677 10.6568787 -3.40729228 8.32156597 -3 6 C-2.34 5.67 -1.68 5.34 -1 5 C-0.34444881 2.47266765 -0.34444881 2.47266765 0 0 Z " fill="#81AE57" transform="translate(84,102)"/>
<path d="M0 0 C0.66 0 1.32 0 2 0 C2.66 3.3 3.32 6.6 4 10 C4.99 10.33 5.98 10.66 7 11 C6.67 12.32 6.34 13.64 6 15 C2.17354053 12.32147837 1.53180354 9.65189384 0.75 5.25 C0.48463689 3.50226363 0.22967506 1.75278332 0 0 Z " fill="#E1AB5F" transform="translate(196,44)"/>
<path d="M0 0 C0.99 0 1.98 0 3 0 C3.33 1.32 3.66 2.64 4 4 C5.32 4 6.64 4 8 4 C8.28875 4.763125 8.5775 5.52625 8.875 6.3125 C9.96269013 9.15029308 9.96269013 9.15029308 12 12 C8.87142986 10.6118265 6.71810826 8.98898122 4.3125 6.5625 C3.71050781 5.96566406 3.10851563 5.36882812 2.48828125 4.75390625 C1 3 1 3 0 0 Z " fill="#E9BA7C" transform="translate(60,223)"/>
<path d="M0 0 C0.66 0 1.32 0 2 0 C2 0.66 2 1.32 2 2 C5.82517513 4.39073445 9.59665524 4.55966552 14 5 C14 5.33 14 5.66 14 6 C10.37 6.33 6.74 6.66 3 7 C2.67 6.01 2.34 5.02 2 4 C1.34 4 0.68 4 0 4 C0 2.68 0 1.36 0 0 Z " fill="#E9AF5E" transform="translate(178,71)"/>
<path d="M0 0 C2.31 0 4.62 0 7 0 C3.50741507 3.49258493 -0.5500285 4.92091065 -5.4375 5.1875 C-6.283125 5.125625 -7.12875 5.06375 -8 5 C-7.01 4.67 -6.02 4.34 -5 4 C-5 3.34 -5 2.68 -5 2 C-3.35 2 -1.7 2 0 2 C0 1.34 0 0.68 0 0 Z " fill="#E0A046" transform="translate(239,233)"/>
<path d="M0 0 C0.33 0 0.66 0 1 0 C1 1.65 1 3.3 1 5 C-0.32 5 -1.64 5 -3 5 C-3 6.32 -3 7.64 -3 9 C-5.31 9.33 -7.62 9.66 -10 10 C-6.67692308 5.2 -6.67692308 5.2 -3.25 4.1875 C-2.5075 4.125625 -1.765 4.06375 -1 4 C-0.67 2.68 -0.34 1.36 0 0 Z " fill="#E89834" transform="translate(124,184)"/>
<path d="M0 0 C1.65 0 3.3 0 5 0 C4.67 0.66 4.34 1.32 4 2 C4.21090786 4.06603621 4.57692156 6.08087967 4.94140625 8.125 C4.96074219 8.74375 4.98007813 9.3625 5 10 C4.34 10.66 3.68 11.32 3 12 C2.67 9.36 2.34 6.72 2 4 C1.34 4 0.68 4 0 4 C0 2.68 0 1.36 0 0 Z " fill="#E69727" transform="translate(196,40)"/>
<path d="M0 0 C2.5 1.25 2.5 1.25 5 3 C5 4.32 5 5.64 5 7 C3.68 7.33 2.36 7.66 1 8 C-1 5 -1 5 -0.625 2.3125 C-0.41875 1.549375 -0.2125 0.78625 0 0 Z " fill="#222322" transform="translate(180,30)"/>
<path d="M0 0 C2.125 0.9375 2.125 0.9375 4 2 C2 4 2 4 -1.2578125 4.1953125 C-2.53398438 4.17210937 -3.81015625 4.14890625 -5.125 4.125 C-7.04699219 4.09792969 -7.04699219 4.09792969 -9.0078125 4.0703125 C-10.48894531 4.03550781 -10.48894531 4.03550781 -12 4 C-12 3.67 -12 3.34 -12 3 C-11.30132812 2.86722656 -10.60265625 2.73445312 -9.8828125 2.59765625 C-8.51769531 2.33275391 -8.51769531 2.33275391 -7.125 2.0625 C-6.22007813 1.88847656 -5.31515625 1.71445313 -4.3828125 1.53515625 C-2.00043683 1.10036299 -2.00043683 1.10036299 0 0 Z " fill="#6A89B2" transform="translate(96,189)"/>
<path d="M0 0 C2.7972908 2.06756277 3.02692273 3.14440371 3.6875 6.6875 C3.790625 7.780625 3.89375 8.87375 4 10 C2.35 9.67 0.7 9.34 -1 9 C-1.07427838 5.65747276 -1.06546953 3.1964086 0 0 Z " fill="#A2B7DD" transform="translate(117,147)"/>
<path d="M0 0 C-0.33 0.66 -0.66 1.32 -1 2 C-2.65 2 -4.3 2 -6 2 C-6 2.66 -6 3.32 -6 4 C-8.64 4.33 -11.28 4.66 -14 5 C-10.05572558 0.43294541 -5.8595807 -0.27253864 0 0 Z " fill="#6E89B6" transform="translate(88,132)"/>
<path d="M0 0 C3.63 0.33 7.26 0.66 11 1 C8 4 8 4 4.9375 4.25 C2 4 2 4 0 3 C0 2.01 0 1.02 0 0 Z " fill="#E7A049" transform="translate(121,75)"/>
<path d="M0 0 C-4.52760188 3.01840125 -6.52368308 4.24339186 -12 4 C-12 3.34 -12 2.68 -12 2 C-8.09971775 -0.60018816 -4.52565431 -0.15085514 0 0 Z " fill="#E29931" transform="translate(102,41)"/>
<path d="M0 0 C1.77395508 0.42466497 3.54410631 0.8652409 5.3125 1.3125 C6.29863281 1.55613281 7.28476563 1.79976562 8.30078125 2.05078125 C11.00141012 3.00049589 12.20956216 3.81847677 14 6 C9.14580734 5.40802528 5.35759324 4.13607512 1 2 C0.67 1.34 0.34 0.68 0 0 Z " fill="#E09C46" transform="translate(70,232)"/>
<path d="M0 0 C0.33 0 0.66 0 1 0 C1.02708567 1.60407328 1.04643483 3.2082785 1.0625 4.8125 C1.07410156 5.70582031 1.08570313 6.59914063 1.09765625 7.51953125 C1 10 1 10 0 13 C-0.66 13 -1.32 13 -2 13 C-2 13.66 -2 14.32 -2 15 C-2.99 14.67 -3.98 14.34 -5 14 C-4.360625 12.989375 -3.72125 11.97875 -3.0625 10.9375 C-0.93151044 7.24780076 -0.34460387 4.22139745 0 0 Z " fill="#E4A458" transform="translate(202,60)"/>
<path d="M0 0 C0.33 0 0.66 0 1 0 C1.33 2.64 1.66 5.28 2 8 C2.66 8 3.32 8 4 8 C4 8.66 4 9.32 4 10 C3.34 10 2.68 10 2 10 C1.67 10.99 1.34 11.98 1 13 C0.67 11.02 0.34 9.04 0 7 C-0.66 7 -1.32 7 -2 7 C-1.34 4.69 -0.68 2.38 0 0 Z " fill="#1B1A1C" transform="translate(186,54)"/>
<path d="M0 0 C4.58537549 0.25474308 7.58661647 0.85968715 11 4 C8.69 4.33 6.38 4.66 4 5 C4 4.34 4 3.68 4 3 C1.03 2.505 1.03 2.505 -2 2 C-1.34 1.34 -0.68 0.68 0 0 Z " fill="#2E2E30" transform="translate(156,2)"/>
<path d="M0 0 C2.45234885 0.98093954 3.7809268 1.68703828 5.3125 3.875 C6.1132654 6.35009306 5.86325845 7.58287634 5 10 C2.66063182 7.87330165 1.19346152 5.93775144 0 3 C0 2.01 0 1.02 0 0 Z " fill="#DE87A9" transform="translate(43,114)"/>
<path d="M0 0 C0.66 0 1.32 0 2 0 C0.5682479 5.01113235 -1.98445693 6.94469549 -6 10 C-6.33 8.68 -6.66 7.36 -7 6 C-6.21625 5.7525 -5.4325 5.505 -4.625 5.25 C-1.67682892 3.84610901 -1.0975223 2.99324263 0 0 Z " fill="#D46B93" transform="translate(45,136)"/>
<path d="M0 0 C0.625 1.875 0.625 1.875 1 4 C0.34 4.66 -0.32 5.32 -1 6 C-1.64767793 8.57061311 -1.64767793 8.57061311 -2 11 C-2.66 11 -3.32 11 -4 11 C-3.56179109 6.44262737 -3.14958831 3.42346555 0 0 Z " fill="#C64E81" transform="translate(49,51)"/>
<path d="M0 0 C-2 2 -2 2 -3.9453125 2.1953125 C-5.96354167 2.13020833 -7.98177083 2.06510417 -10 2 C-10 1.34 -10 0.68 -10 0 C-6.7169902 -1.6415049 -3.57454967 -0.51888624 0 0 Z " fill="#CD668E" transform="translate(61,50)"/>
<path d="M0 0 C1.32 0 2.64 0 4 0 C3.125 5.75 3.125 5.75 2 8 C1.34 8 0.68 8 0 8 C-0.38063221 5.6739143 -0.71269945 3.33944736 -1 1 C-0.67 0.67 -0.34 0.34 0 0 Z " fill="#1E1E21" transform="translate(132,33)"/>
<path d="M0 0 C0.556875 0.226875 1.11375 0.45375 1.6875 0.6875 C-3.9375 4.6875 -3.9375 4.6875 -7.3125 4.6875 C-7.3125 4.0275 -7.3125 3.3675 -7.3125 2.6875 C-3.15982824 -0.42700382 -3.15982824 -0.42700382 0 0 Z " fill="#81B060" transform="translate(79.3125,116.3125)"/>
<path d="M0 0 C4 6 4 6 4 9 C3.01 8.67 2.02 8.34 1 8 C-0.1875 4.4375 -0.1875 4.4375 -1 1 C-0.67 0.67 -0.34 0.34 0 0 Z " fill="#DCA555" transform="translate(58,214)"/>
<path d="M0 0 C0.625 1.875 0.625 1.875 1 4 C0.34 4.66 -0.32 5.32 -1 6 C-3.5 4.625 -3.5 4.625 -6 3 C-6 2.34 -6 1.68 -6 1 C-3.525 1.495 -3.525 1.495 -1 2 C-0.67 1.34 -0.34 0.68 0 0 Z " fill="#333233" transform="translate(133,61)"/>
<path d="M0 0 C0.99 0 1.98 0 3 0 C2.67 1.65 2.34 3.3 2 5 C1.34 5 0.68 5 0 5 C-0.33 5.66 -0.66 6.32 -1 7 C-1.625 5.1875 -1.625 5.1875 -2 3 C-1.34 2.01 -0.68 1.02 0 0 Z " fill="#2B2A28" transform="translate(131,41)"/>
<path d="M0 0 C0 3.99904969 -1.72586967 5.80200422 -4 9 C-4.88492145 6.52221994 -5.11637742 5.33943414 -4.25 2.8125 C-3 1 -3 1 0 0 Z " fill="#EE9727" transform="translate(255,218)"/>
<path d="M0 0 C0.99 0 1.98 0 3 0 C3 2.31 3 4.62 3 7 C2.34 7 1.68 7 1 7 C0.67 4.69 0.34 2.38 0 0 Z " fill="#E99634" transform="translate(252,162)"/>
<path d="M0 0 C3.05882701 1.52941351 3.68951234 3.94219546 5 7 C4.67 7.66 4.34 8.32 4 9 C0 4.5 0 4.5 0 0 Z " fill="#9FBF80" transform="translate(54,109)"/>
<path d="M0 0 C0 0.66 0 1.32 0 2 C-0.61875 2.28875 -1.2375 2.5775 -1.875 2.875 C-4.13325765 3.93720042 -4.13325765 3.93720042 -6 6 C-6.33 4.68 -6.66 3.36 -7 2 C-4.35261084 0.5393715 -3.10551666 0 0 0 Z " fill="#7BAB55" transform="translate(65,92)"/>
<path d="M0 0 C0.99 0.495 0.99 0.495 2 1 C2.4140625 3.06640625 2.4140625 3.06640625 2.625 5.5625 C2.69976563 6.38878906 2.77453125 7.21507813 2.8515625 8.06640625 C2.92503906 9.02353516 2.92503906 9.02353516 3 10 C1.51171875 8.73046875 1.51171875 8.73046875 0 7 C-0.1875 3.3125 -0.1875 3.3125 0 0 Z " fill="#7B5F94" transform="translate(26,88)"/>
<path d="M0 0 C1.66611905 -0.042721 3.33382885 -0.04063832 5 0 C6 1 6 1 6.0625 4.5625 C6.041875 5.696875 6.02125 6.83125 6 8 C5.67 8 5.34 8 5 8 C4.67 6.35 4.34 4.7 4 3 C3.01 3.495 3.01 3.495 2 4 C2 3.01 2 2.02 2 1 C1.34 0.67 0.68 0.34 0 0 Z " fill="#877A9F" transform="translate(37,86)"/>
<path d="M0 0 C0 0.66 0 1.32 0 2 C-0.99 2 -1.98 2 -3 2 C-2.67 3.32 -2.34 4.64 -2 6 C-3.65 5.67 -5.3 5.34 -7 5 C-2.25 0 -2.25 0 0 0 Z " fill="#E99538" transform="translate(113,195)"/>
<path d="M0 0 C1.32 0.33 2.64 0.66 4 1 C4.33 2.65 4.66 4.3 5 6 C4.01 6 3.02 6 2 6 C1.34 4.02 0.68 2.04 0 0 Z " fill="#E5A656" transform="translate(120,137)"/>
<path d="M0 0 C0.33 0 0.66 0 1 0 C1 2.31 1 4.62 1 7 C0.01 6.67 -0.98 6.34 -2 6 C-1.125 1.125 -1.125 1.125 0 0 Z " fill="#FA5290" transform="translate(13,120)"/>
<path d="M0 0 C0.33 0 0.66 0 1 0 C1 2.64 1 5.28 1 8 C0.01 8 -0.98 8 -2 8 C-1.47731534 5.23723823 -0.89130413 2.6739124 0 0 Z " fill="#E79331" transform="translate(174,58)"/>
<path d="M0 0 C0.66 0.33 1.32 0.66 2 1 C2 2.32 2 3.64 2 5 C0.02 5.99 0.02 5.99 -2 7 C-1.125 1.125 -1.125 1.125 0 0 Z " fill="#1D1D1C" transform="translate(186,41)"/>
<path d="M0 0 C0.66 0.33 1.32 0.66 2 1 C1.67 2.65 1.34 4.3 1 6 C0.34 6 -0.32 6 -1 6 C-1.625 4.125 -1.625 4.125 -2 2 C-1.34 1.34 -0.68 0.68 0 0 Z " fill="#1F1F21" transform="translate(179,23)"/>
</svg>
